# xmcd CD database file
#
# Track frame offsets:
#	150
#	23769
#	38273
#	61825
#	79211
#	98353
#	121817
#	139225
#	159294
#	178835
#	202031
#	223837
#	246513
#
# Disc length: 3630 seconds
#
# Revision: 0
# Processed by: cddbd v1.5.2PL0 Copyright (c) Steve Scherf et al.
# Submitted via: CDex 1.70beta2
#
DISCID=aa0e2c0d
DTITLE=Tonke Dragt - Der Brief für den König CD 4
DYEAR=2007
DGENRE=Hörbuch
TTITLE0=Westlich vom Regenbogenfluss
TTITLE1=Westlich vom Regenbogenfluss
TTITLE2=Westlich vom Regenbogenfluss
TTITLE3=Westlich vom Regenbogenfluss
TTITLE4=Westlich vom Regenbogenfluss
TTITLE5=Westlich vom Regenbogenfluss
TTITLE6=Westlich vom Regenbogenfluss
TTITLE7=Westlich vom Regenbogenfluss
TTITLE8=Westlich vom Regenbogenfluss
TTITLE9=Westlich vom Regenbogenfluss
TTITLE10=Westlich vom Regenbogenfluss
TTITLE11=Westlich vom Regenbogenfluss
TTITLE12=Westlich vom Regenbogenfluss
EXTD=YEAR: 2007
EXTT0=
EXTT1=
EXTT2=
EXTT3=
EXTT4=
EXTT5=
EXTT6=
EXTT7=
EXTT8=
EXTT9=
EXTT10=
EXTT11=
EXTT12=
PLAYORDER=
